<?xml version="1.0" encoding="utf-8"?>
<!-- Generator: Adobe Illustrator 17.0.1, SVG Export Plug-In . SVG Version: 6.00 Build 0)  -->
<!DOCTYPE svg PUBLIC "-//W3C//DTD SVG 1.1//EN" "http://www.w3.org/Graphics/SVG/1.1/DTD/svg11.dtd">
<svg version="1.1" id="Calque_1" xmlns="http://www.w3.org/2000/svg" xmlns:xlink="http://www.w3.org/1999/xlink" x="0px" y="0px"
	 width="861.72px" height="435.051px" viewBox="0 0 861.72 435.051" enable-background="new 0 0 861.72 435.051"
	 xml:space="preserve">
<g>
	<path fill="#D67C1C" d="M159.72,227.73h112.567c-1.627,6-3.724,10.898-6.291,16.496c-4.912,10.736-11.651,19.61-20.026,27.478
		c-8.392,7.871-18.465,13.835-29.936,18.267c-11.558,4.465-24.765,6.598-39.262,6.598c-14.119,0-27.529-2.977-39.871-8.697
		c-12.572-5.814-23.701-13.957-33.093-24.15c-9.5-10.299-17.123-22.52-22.651-36.283c-5.485-13.639-8.265-28.334-8.265-43.672
		c0-15.316,2.772-29.924,8.244-43.401c5.525-13.617,13.157-25.756,22.683-36.083c9.381-10.18,20.514-18.295,33.082-24.117
		c12.348-5.72,25.764-8.618,39.871-8.618c20.864,0,38.782,5.14,54.771,15.709c16.154,10.678,28.193,28.948,36.808,47.513
		l77.995,0.18c0,0-1.339-8.315-4.462-17.514c-5.564-16.396-16.748-36.062-28.115-50.831c-11.348-14.719-24.356-27.037-38.678-36.934
		c-14.336-9.897-30.101-17.351-46.858-22.317C211.632,2.447,194.316,0,176.771,0c-24.513,0-47.781,4.963-69.15,14.711
		C86.52,24.332,67.729,37.619,51.77,54.19c-15.922,16.538-28.657,36.096-37.847,58.127C4.685,134.457,0,158.495,0,183.753
		c0,25.244,4.678,49.34,13.904,71.616c9.194,22.211,21.938,41.863,37.866,58.402c15.949,16.563,34.736,29.843,55.845,39.466
		c21.371,9.747,44.638,14.689,69.156,14.689c25.161,0,48.59-4.297,69.629-12.775c21.236-8.559,39.78-21.018,55.101-37.028
		c15.232-15.921,27.343-35.27,35.667-57.512c8.216-21.989,12.552-46.604,12.552-73.159V155.73h-190V227.73z"/>
	<path fill="#D67C1C" d="M450.371,281.522c-6.463-6.559-8.651-17.649-8.651-32.109V9.731h-76v239.682
		c0,35.114,10.989,62.738,31.729,82.74c20.557,19.844,48.524,29.578,82.18,29.578H586.72v-70H479.629
		C465.688,291.73,456.852,288.107,450.371,281.522"/>
	<path fill="#D67C1C" d="M830.024,38.918C809.459,19.07,781.524,9.73,747.87,9.73H600.72v352h72V81.731h75.15
		c13.941,0,21.751,2.226,28.228,8.813c6.467,6.562,7.622,16.235,7.622,30.694V361.73h78V121.239
		C861.72,86.126,850.764,58.916,830.024,38.918"/>
	<path fill="#3F3E3E" d="M38.757,413.022v2.034c0,3.013-0.462,5.753-1.386,8.218c-0.922,2.468-2.219,4.575-3.896,6.327
		c-1.676,1.75-3.682,3.097-6.016,4.038c-2.335,0.939-4.914,1.412-7.738,1.412c-2.709,0-5.241-0.536-7.597-1.61
		c-2.354-1.073-4.42-2.531-6.195-4.378c-1.775-1.844-3.179-4.01-4.207-6.494c-1.029-2.486-1.542-5.141-1.542-7.965
		s0.513-5.469,1.542-7.935c1.028-2.467,2.432-4.621,4.207-6.467c1.775-1.845,3.842-3.305,6.195-4.378
		c2.356-1.073,4.888-1.608,7.597-1.608c1.958,0,3.861,0.272,5.706,0.818c1.844,0.547,3.559,1.365,5.139,2.457
		c1.582,1.093,3.002,2.457,4.266,4.095c1.261,1.638,2.269,3.53,3.021,5.677H32.77c-1.205-2.599-2.947-4.651-5.224-6.156
		c-2.279-1.507-4.888-2.261-7.824-2.261c-2.032,0-3.944,0.415-5.733,1.244c-1.789,0.827-3.35,1.967-4.687,3.416
		c-1.338,1.45-2.392,3.126-3.164,5.026c-0.773,1.902-1.155,3.926-1.155,6.072c0,2.147,0.383,4.181,1.155,6.101
		s1.826,3.607,3.164,5.054c1.337,1.452,2.897,2.591,4.687,3.418c1.789,0.83,3.701,1.242,5.733,1.242
		c2.033,0,3.879-0.319,5.536-0.958c1.657-0.641,3.098-1.535,4.32-2.685c1.224-1.147,2.193-2.504,2.908-4.065
		c0.715-1.563,1.166-3.248,1.355-5.056H20.005v-4.633L38.757,413.022L38.757,413.022z"/>
	<path fill="#3F3E3E" d="M49.319,412.514h18.356v4.462H49.319v5.648c0,2.298,0.592,4.059,1.776,5.282
		c1.189,1.223,2.912,1.834,5.168,1.834H70.16v4.633H56.264c-3.575,0-6.426-1.027-8.553-3.083c-2.13-2.056-3.193-4.95-3.193-8.682
		v-15.726c0-3.772,1.063-6.674,3.193-8.711c2.127-2.036,4.978-3.054,8.553-3.054H70.16v4.631H56.264
		c-2.256,0-3.979,0.612-5.168,1.836c-1.185,1.224-1.776,3.003-1.776,5.338L49.319,412.514L49.319,412.514z"/>
	<path fill="#3F3E3E" d="M117.491,412.514h18.356v4.462h-18.356v5.648c0,2.298,0.592,4.059,1.776,5.282
		c1.188,1.223,2.912,1.834,5.168,1.834h13.898v4.633h-13.898c-3.575,0-6.426-1.027-8.553-3.083c-2.129-2.056-3.192-4.95-3.192-8.682
		v-15.726c0-3.772,1.063-6.674,3.192-8.711c2.127-2.036,4.978-3.054,8.553-3.054h13.898v4.631h-13.898
		c-2.256,0-3.979,0.612-5.168,1.836c-1.185,1.224-1.776,3.003-1.776,5.338C117.491,406.922,117.491,412.514,117.491,412.514z"/>
	<path fill="#3F3E3E" d="M165.303,412.882c1.413-1.526,2.118-3.513,2.118-5.959c0-1.13-0.217-2.184-0.647-3.164
		c-0.435-0.979-1.047-1.835-1.838-2.569s-1.731-1.316-2.824-1.75c-1.092-0.434-2.297-0.65-3.614-0.65
		c-1.279,0-2.456,0.217-3.529,0.65c-1.073,0.434-2.006,1.053-2.795,1.863c-0.792,0.811-1.412,1.789-1.864,2.936
		c-0.453,1.149-0.679,2.421-0.679,3.812v7.119h9.207C161.734,415.17,163.891,414.406,165.303,412.882 M170.415,419.441
		c0.678,1.131,1.019,2.488,1.019,4.072v10.859h-4.803v-10.507c0-1.128-0.349-2.088-1.044-2.88c-0.696-0.791-1.762-1.186-3.192-1.186
		H149.63v14.573h-4.801v-26.358c0-1.999,0.339-3.847,1.019-5.544c0.676-1.695,1.625-3.157,2.85-4.385
		c1.224-1.224,2.664-2.186,4.322-2.883c1.656-0.697,3.481-1.047,5.478-1.047c1.883,0,3.664,0.33,5.338,0.99
		c1.675,0.661,3.136,1.564,4.377,2.715c1.244,1.15,2.222,2.497,2.937,4.045c0.715,1.546,1.076,3.204,1.076,4.978
		c0,2.262-0.408,4.214-1.216,5.854c-0.812,1.64-1.969,2.969-3.474,3.987C168.777,417.405,169.736,418.309,170.415,419.441"/>
	<path fill="#3F3E3E" d="M202.329,408.051c0-1.279-0.226-2.475-0.679-3.586c-0.453-1.109-1.073-2.09-1.864-2.936
		c-0.792-0.848-1.742-1.517-2.851-2.007c-1.113-0.487-2.328-0.733-3.646-0.733c-1.278,0-2.475,0.246-3.586,0.733
		c-1.111,0.49-2.072,1.159-2.882,2.007c-0.81,0.846-1.438,1.826-1.892,2.936c-0.45,1.111-0.677,2.307-0.677,3.586v7.119h18.075
		v-7.119H202.329z M207.129,434.373h-4.8V419.8h-18.075v14.573h-4.802v-26.358c0-1.962,0.349-3.78,1.045-5.459
		c0.696-1.678,1.657-3.14,2.881-4.385c1.226-1.242,2.685-2.224,4.378-2.94c1.693-0.717,3.538-1.075,5.534-1.075
		s3.841,0.358,5.537,1.075c1.694,0.716,3.153,1.697,4.376,2.94c1.224,1.245,2.184,2.707,2.88,4.385
		c0.696,1.679,1.046,3.497,1.046,5.459L207.129,434.373L207.129,434.373z"/>
	<polygon fill="#3F3E3E" points="227.915,399.749 227.915,434.373 223.111,434.373 223.111,399.749 210.799,399.749 
		210.799,395.117 240.229,395.117 240.229,399.749 	"/>
	<path fill="#3F3E3E" d="M266.338,429.205c1.767-0.809,3.316-1.929,4.65-3.361c1.335-1.43,2.387-3.105,3.157-5.027
		c0.77-1.92,1.155-3.99,1.155-6.213c0-2.259-0.375-4.348-1.125-6.268c-0.754-1.922-1.787-3.588-3.103-4.999
		c-1.313-1.412-2.866-2.522-4.649-3.333c-1.787-0.81-3.711-1.214-5.781-1.214c-2.028,0-3.926,0.404-5.692,1.214
		c-1.767,0.811-3.315,1.931-4.649,3.36c-1.334,1.433-2.388,3.107-3.16,5.028c-0.768,1.92-1.153,3.991-1.153,6.212
		c0,2.223,0.386,4.303,1.153,6.242c0.773,1.939,1.826,3.614,3.16,5.026s2.883,2.524,4.649,3.333c1.767,0.81,3.664,1.213,5.692,1.213
		C262.674,430.418,264.569,430.016,266.338,429.205 M268.28,395.713c2.375,1.037,4.439,2.471,6.192,4.298
		c1.755,1.83,3.131,3.987,4.13,6.475c0.999,2.489,1.5,5.186,1.5,8.089c0,2.866-0.509,5.543-1.527,8.033
		c-1.019,2.488-2.405,4.655-4.157,6.504c-1.754,1.848-3.82,3.299-6.195,4.354c-2.377,1.055-4.899,1.584-7.58,1.584
		c-2.676,0-5.203-0.529-7.579-1.584c-2.375-1.056-4.438-2.507-6.192-4.354c-1.755-1.849-3.14-4.016-4.156-6.504
		c-1.02-2.49-1.528-5.167-1.528-8.033c0-2.865,0.508-5.532,1.528-8.002c1.017-2.47,2.401-4.628,4.156-6.478
		c1.754-1.848,3.817-3.299,6.192-4.354c2.376-1.056,4.903-1.585,7.579-1.585C263.358,394.157,265.905,394.676,268.28,395.713"/>
	<path fill="#3F3E3E" d="M306.903,412.882c1.412-1.526,2.117-3.513,2.117-5.959c0-1.13-0.217-2.184-0.649-3.164
		c-0.433-0.979-1.046-1.835-1.836-2.569c-0.792-0.734-1.732-1.316-2.823-1.75c-1.093-0.434-2.297-0.65-3.615-0.65
		c-1.281,0-2.457,0.217-3.529,0.65c-1.073,0.434-2.006,1.053-2.797,1.863c-0.79,0.811-1.41,1.789-1.862,2.936
		c-0.453,1.149-0.679,2.421-0.679,3.812v7.119h9.207C303.335,415.17,305.49,414.406,306.903,412.882 M312.015,419.441
		c0.678,1.131,1.016,2.488,1.016,4.072v10.859h-4.8v-10.507c0-1.128-0.349-2.088-1.044-2.88c-0.699-0.791-1.762-1.186-3.193-1.186
		H291.23v14.573h-4.801v-26.358c0-1.999,0.338-3.847,1.019-5.544c0.674-1.695,1.625-3.157,2.85-4.385
		c1.224-1.224,2.664-2.186,4.322-2.883c1.656-0.697,3.482-1.047,5.478-1.047c1.883,0,3.662,0.33,5.338,0.99
		c1.675,0.661,3.135,1.564,4.377,2.715c1.244,1.15,2.222,2.497,2.938,4.045c0.715,1.546,1.073,3.204,1.073,4.978
		c0,2.262-0.405,4.214-1.214,5.854c-0.811,1.64-1.969,2.969-3.474,3.987C310.376,417.405,311.337,418.309,312.015,419.441"/>
	<path fill="#3F3E3E" d="M390.522,429.74v4.633h-11.297c-3.576,0-6.43-1.026-8.557-3.079c-2.128-2.052-3.192-4.942-3.192-8.67
		v-27.449h4.802v27.449c0,2.336,0.593,4.105,1.779,5.31c1.186,1.205,2.91,1.807,5.168,1.807L390.522,429.74L390.522,429.74z"/>
	<path fill="#3F3E3E" d="M416.522,429.205c1.766-0.809,3.315-1.929,4.65-3.361c1.334-1.43,2.387-3.105,3.156-5.027
		c0.77-1.92,1.155-3.99,1.155-6.213c0-2.259-0.375-4.348-1.128-6.268c-0.75-1.922-1.784-3.588-3.1-4.999
		c-1.315-1.412-2.865-2.522-4.65-3.333c-1.786-0.81-3.711-1.214-5.779-1.214c-2.028,0-3.927,0.404-5.693,1.214
		c-1.767,0.811-3.317,1.931-4.649,3.36c-1.335,1.433-2.388,3.107-3.157,5.028c-0.771,1.92-1.156,3.991-1.156,6.212
		c0,2.223,0.385,4.303,1.156,6.242c0.77,1.939,1.822,3.614,3.157,5.026c1.332,1.412,2.883,2.524,4.649,3.333
		c1.767,0.81,3.665,1.213,5.693,1.213C412.856,430.418,414.755,430.016,416.522,429.205 M418.463,395.713
		c2.378,1.037,4.441,2.471,6.194,4.298c1.754,1.83,3.13,3.987,4.129,6.475c1,2.489,1.5,5.186,1.5,8.089
		c0,2.866-0.511,5.543-1.528,8.033c-1.018,2.488-2.403,4.655-4.156,6.504c-1.754,1.848-3.817,3.299-6.194,4.354
		c-2.376,1.055-4.901,1.584-7.58,1.584c-2.677,0-5.203-0.529-7.58-1.584c-2.375-1.056-4.439-2.507-6.191-4.354
		c-1.754-1.849-3.141-4.016-4.16-6.504c-1.018-2.49-1.524-5.167-1.524-8.033c0-2.865,0.507-5.532,1.524-8.002
		c1.02-2.47,2.406-4.628,4.16-6.478c1.753-1.848,3.816-3.299,6.191-4.354c2.377-1.056,4.903-1.585,7.58-1.585
		C413.542,394.157,416.088,394.676,418.463,395.713"/>
	<path fill="#3F3E3E" d="M473.323,413.022v2.034c0,3.013-0.461,5.753-1.383,8.218c-0.924,2.468-2.222,4.575-3.897,6.327
		c-1.676,1.75-3.682,3.097-6.016,4.038c-2.336,0.939-4.914,1.412-7.739,1.412c-2.71,0-5.243-0.536-7.596-1.61
		c-2.354-1.073-4.419-2.531-6.196-4.378c-1.776-1.844-3.178-4.01-4.207-6.494c-1.03-2.486-1.543-5.141-1.543-7.965
		s0.513-5.469,1.543-7.935c1.029-2.467,2.431-4.621,4.207-6.467c1.777-1.845,3.842-3.305,6.196-4.378
		c2.353-1.073,4.886-1.608,7.596-1.608c1.958,0,3.86,0.272,5.706,0.818c1.844,0.547,3.557,1.365,5.139,2.457
		c1.582,1.093,3.003,2.457,4.266,4.095c1.26,1.638,2.268,3.53,3.021,5.677h-5.083c-1.205-2.599-2.947-4.651-5.225-6.156
		c-2.277-1.507-4.886-2.261-7.823-2.261c-2.033,0-3.945,0.415-5.733,1.244c-1.789,0.827-3.35,1.967-4.688,3.416
		c-1.337,1.45-2.391,3.126-3.162,5.026c-0.773,1.902-1.157,3.926-1.157,6.072c0,2.147,0.384,4.181,1.157,6.101
		c0.771,1.92,1.825,3.607,3.162,5.054c1.338,1.452,2.899,2.591,4.688,3.418c1.787,0.83,3.699,1.242,5.733,1.242
		s3.88-0.319,5.536-0.958c1.657-0.641,3.097-1.535,4.32-2.685c1.225-1.147,2.193-2.504,2.909-4.065
		c0.715-1.563,1.165-3.248,1.354-5.056h-13.836v-4.633L473.323,413.022L473.323,413.022z"/>
	<rect x="480.214" y="395.175" fill="#3F3E3E" width="4.803" height="39.198"/>
	<polygon fill="#3F3E3E" points="539.124,399.749 539.124,434.373 534.321,434.373 534.321,399.749 522.009,399.749 
		522.009,395.117 551.438,395.117 551.438,399.749 	"/>
	<rect x="557.196" y="395.175" fill="#3F3E3E" width="4.803" height="39.198"/>
	<path fill="#3F3E3E" d="M603.738,427.368c-1.167,1.619-2.523,2.994-4.067,4.124c-1.545,1.131-3.258,2.005-5.139,2.627
		c-1.884,0.621-3.879,0.932-5.987,0.932c-2.675,0-5.196-0.538-7.569-1.611c-2.371-1.075-4.437-2.536-6.195-4.383
		c-1.758-1.849-3.15-4.016-4.18-6.506c-1.027-2.488-1.541-5.148-1.541-7.976c0-2.827,0.514-5.477,1.541-7.946
		c1.029-2.469,2.422-4.629,4.18-6.477c1.759-1.847,3.824-3.308,6.195-4.383c2.373-1.075,4.895-1.612,7.569-1.612
		c2.221,0,4.292,0.324,6.215,0.974c1.918,0.647,3.642,1.551,5.166,2.709c1.526,1.16,2.843,2.54,3.954,4.141
		c1.111,1.601,1.985,3.361,2.626,5.281h-5.026c-1.092-2.486-2.72-4.518-4.888-6.102c-2.164-1.581-4.847-2.371-8.047-2.371
		c-2.033,0-3.936,0.414-5.704,1.242c-1.771,0.828-3.322,1.969-4.66,3.418c-1.337,1.449-2.393,3.135-3.163,5.055
		c-0.772,1.92-1.159,3.953-1.159,6.1s0.387,4.181,1.159,6.101c0.771,1.92,1.826,3.607,3.163,5.054
		c1.338,1.451,2.889,2.591,4.66,3.418c1.768,0.83,3.671,1.242,5.704,1.242c2.899,0,5.478-0.762,7.737-2.286
		c2.26-1.525,3.992-3.587,5.197-6.186h5.026C605.829,423.942,604.904,425.751,603.738,427.368"/>
	<rect x="696.68" y="395.175" fill="#3F3E3E" width="4.802" height="39.198"/>
	<path fill="#3F3E3E" d="M747.119,413.022v2.034c0,3.013-0.461,5.753-1.384,8.218c-0.923,2.468-2.222,4.575-3.897,6.327
		c-1.676,1.75-3.682,3.097-6.017,4.038c-2.334,0.939-4.914,1.412-7.737,1.412c-2.711,0-5.244-0.536-7.598-1.61
		c-2.353-1.073-4.418-2.531-6.194-4.378c-1.776-1.844-3.179-4.01-4.209-6.494c-1.028-2.486-1.541-5.141-1.541-7.965
		s0.513-5.469,1.541-7.935c1.03-2.467,2.433-4.621,4.209-6.467c1.776-1.845,3.842-3.305,6.194-4.378
		c2.353-1.073,4.887-1.608,7.598-1.608c1.957,0,3.859,0.272,5.706,0.818c1.843,0.547,3.557,1.365,5.138,2.457
		c1.582,1.093,3.003,2.457,4.266,4.095c1.262,1.638,2.268,3.53,3.02,5.677h-5.081c-1.205-2.599-2.949-4.651-5.224-6.156
		c-2.279-1.507-4.887-2.261-7.824-2.261c-2.033,0-3.945,0.415-5.735,1.244c-1.787,0.827-3.349,1.967-4.687,3.416
		c-1.336,1.45-2.391,3.126-3.162,5.026c-0.772,1.902-1.158,3.926-1.158,6.072c0,2.147,0.386,4.181,1.158,6.101
		c0.771,1.92,1.826,3.607,3.162,5.054c1.338,1.452,2.899,2.591,4.687,3.418c1.79,0.83,3.702,1.242,5.735,1.242
		c2.033,0,3.878-0.319,5.535-0.958c1.656-0.641,3.098-1.535,4.32-2.685c1.224-1.147,2.193-2.504,2.909-4.065
		c0.715-1.563,1.166-3.248,1.355-5.056h-13.838v-4.633L747.119,413.022L747.119,413.022z"/>
	<path fill="#3F3E3E" d="M757.681,412.514h18.357v4.462h-18.357v5.648c0,2.298,0.592,4.059,1.777,5.282
		c1.188,1.223,2.911,1.834,5.168,1.834h13.896v4.633h-13.896c-3.576,0-6.428-1.027-8.555-3.083c-2.129-2.056-3.191-4.95-3.191-8.682
		v-15.726c0-3.772,1.063-6.674,3.191-8.711c2.127-2.036,4.979-3.054,8.555-3.054h13.896v4.631h-13.896
		c-2.257,0-3.979,0.612-5.168,1.836c-1.186,1.224-1.777,3.003-1.777,5.338V412.514z"/>
	<path fill="#3F3E3E" d="M805.491,412.882c1.412-1.526,2.12-3.513,2.12-5.959c0-1.13-0.218-2.184-0.649-3.164
		c-0.434-0.979-1.046-1.835-1.837-2.569c-0.792-0.734-1.731-1.316-2.823-1.75c-1.093-0.434-2.298-0.65-3.616-0.65
		c-1.278,0-2.456,0.217-3.528,0.65c-1.074,0.434-2.006,1.053-2.796,1.863c-0.792,0.811-1.413,1.789-1.864,2.936
		c-0.451,1.149-0.679,2.421-0.679,3.812v7.119h9.208C801.925,415.17,804.081,414.406,805.491,412.882 M810.604,419.441
		c0.678,1.131,1.016,2.488,1.016,4.072v10.859h-4.801v-10.507c0-1.128-0.348-2.088-1.043-2.88c-0.698-0.791-1.762-1.186-3.192-1.186
		h-12.766v14.573h-4.801v-26.358c0-1.999,0.339-3.847,1.017-5.544c0.679-1.695,1.629-3.157,2.854-4.385
		c1.223-1.224,2.663-2.186,4.32-2.883c1.656-0.697,3.482-1.047,5.477-1.047c1.883,0,3.663,0.33,5.339,0.99
		c1.676,0.661,3.133,1.564,4.377,2.715c1.242,1.15,2.222,2.497,2.938,4.045c0.715,1.546,1.074,3.204,1.074,4.978
		c0,2.262-0.406,4.214-1.216,5.854s-1.967,2.969-3.474,3.987C808.966,417.405,809.927,418.309,810.604,419.441"/>
	<rect x="820.318" y="395.175" fill="#3F3E3E" width="4.802" height="39.198"/>
	<path fill="#3F3E3E" d="M856.919,408.051c0-1.279-0.226-2.475-0.679-3.586c-0.451-1.109-1.073-2.09-1.864-2.936
		c-0.791-0.848-1.74-1.517-2.852-2.007c-1.11-0.487-2.326-0.733-3.643-0.733c-1.28,0-2.477,0.246-3.587,0.733
		c-1.111,0.49-2.07,1.159-2.879,2.007c-0.81,0.846-1.44,1.826-1.893,2.936c-0.451,1.111-0.677,2.307-0.677,3.586v7.119h18.074
		L856.919,408.051L856.919,408.051z M861.72,434.373h-4.801V419.8h-18.074v14.573h-4.803v-26.358c0-1.962,0.35-3.78,1.046-5.459
		c0.695-1.678,1.657-3.14,2.88-4.385c1.225-1.242,2.684-2.224,4.379-2.94c1.693-0.717,3.539-1.075,5.534-1.075
		s3.841,0.358,5.536,1.075c1.693,0.716,3.152,1.697,4.377,2.94c1.223,1.245,2.184,2.707,2.88,4.385
		c0.696,1.679,1.046,3.497,1.046,5.459L861.72,434.373L861.72,434.373z"/>
	<path fill="#3F3E3E" d="M517.282,418.86c-0.649-1.248-1.609-2.321-2.852-3.193c-1.17-0.814-2.609-1.502-4.28-2.047
		c-1.611-0.526-3.438-1-5.443-1.413c-3.563-0.707-6.104-1.593-7.554-2.633c-1.273-0.91-1.87-2.043-1.87-3.564
		c0-0.924,0.187-1.735,0.57-2.484c0.388-0.764,0.928-1.396,1.656-1.938c0.751-0.566,1.682-1.019,2.77-1.345
		c2.212-0.667,5.291-0.688,7.475,0.037c1.049,0.353,1.953,0.849,2.688,1.479c0.722,0.623,0.914,1.336,1.174,2.265
		c0.26,0.929,0.345,1.866,0.345,2.97l-0.028,0.703l4.788,0.034v-0.703c0-1.438-0.025-2.877-0.554-4.276
		c-0.539-1.423-1.245-2.706-2.329-3.81c-1.096-1.111-2.425-2.008-4.075-2.663c-1.635-0.653-3.547-0.983-5.743-0.983
		c-1.922,0-3.69,0.25-5.282,0.746c-1.619,0.503-3.019,1.219-4.171,2.126c-1.187,0.931-2.118,2.073-2.774,3.392
		c-0.666,1.324-1,2.82-1,4.451c0,1.78,0.404,3.309,1.197,4.541c0.762,1.191,1.793,2.208,3.072,3.021
		c1.215,0.773,2.614,1.404,4.154,1.873c1.476,0.454,3.033,0.842,4.63,1.152c1.974,0.387,3.658,0.825,5.008,1.301
		c1.265,0.445,2.29,0.95,3.048,1.5c0.679,0.492,1.161,1.047,1.438,1.646c0.293,0.645,0.441,1.422,0.441,2.309
		c0,2.119-0.808,3.737-2.463,4.945c-1.766,1.285-4.263,1.939-7.42,1.939c-1.236,0-2.459-0.173-3.639-0.512
		c-1.135-0.323-2.158-0.831-3.045-1.509c-0.865-0.663-1.872-1.512-2.404-2.528c-0.524-0.983-1.089-2.198-1.089-3.607h-4
		c0,2.134,0.477,4.038,1.319,5.659c0.826,1.604,1.969,2.95,3.34,3.999c1.334,1.022,2.877,1.796,4.555,2.3
		c1.639,0.491,3.309,0.738,4.954,0.738c2.088,0,4.018-0.256,5.739-0.762c1.76-0.517,3.3-1.275,4.569-2.251
		c1.308-0.997,2.326-2.232,3.031-3.672c0.692-1.428,1.044-3.022,1.044-4.739C518.271,421.614,517.938,420.1,517.282,418.86"/>
	<path fill="#3F3E3E" d="M345.052,418.86c-0.651-1.248-1.609-2.321-2.854-3.193c-1.17-0.814-2.61-1.502-4.281-2.047
		c-1.609-0.526-3.439-1-5.441-1.413c-3.563-0.707-6.103-1.593-7.555-2.633c-1.273-0.91-1.869-2.043-1.869-3.564
		c0-0.924,0.186-1.735,0.57-2.484c0.387-0.764,0.928-1.396,1.656-1.938c0.75-0.566,1.682-1.019,2.768-1.345
		c2.213-0.667,5.293-0.688,7.477,0.037c1.048,0.353,1.951,0.849,2.686,1.479c0.723,0.623,1.03,1.365,1.433,2.265
		c0.397,0.891,0.359,1.9,0.359,3.004v1.023h5v-1.023c0-1.438-0.281-2.877-0.811-4.276c-0.539-1.423-1.372-2.706-2.459-3.81
		c-1.092-1.111-2.486-2.008-4.137-2.663c-1.635-0.653-3.58-0.983-5.776-0.983c-1.922,0-3.705,0.25-5.298,0.746
		c-1.618,0.503-3.023,1.219-4.178,2.126c-1.188,0.931-2.124,2.073-2.781,3.392c-0.663,1.324-1,2.82-1,4.451
		c0,1.78,0.403,3.309,1.196,4.541c0.76,1.191,1.793,2.208,3.07,3.021c1.215,0.773,2.615,1.404,4.154,1.873
		c1.477,0.454,3.034,0.842,4.633,1.152c1.972,0.387,3.655,0.825,5.006,1.301c1.266,0.445,2.291,0.95,3.049,1.5
		c0.678,0.492,1.16,1.047,1.437,1.646c0.292,0.645,0.442,1.422,0.442,2.309c0,2.119-0.807,3.737-2.465,4.945
		c-1.766,1.285-4.262,1.939-7.418,1.939c-1.238,0-2.46-0.173-3.639-0.512c-1.136-0.323-2.16-0.831-3.045-1.509
		c-0.867-0.663-1.616-1.512-2.149-2.528c-0.523-0.983-0.832-2.198-0.832-3.607v-1.03h-4v1.03c0,2.134,0.219,4.038,1.06,5.659
		c0.828,1.604,1.842,2.95,3.213,3.999c1.337,1.022,2.814,1.796,4.492,2.3c1.637,0.491,3.277,0.738,4.925,0.738
		c2.084,0,3.999-0.256,5.72-0.762c1.761-0.517,3.293-1.275,4.561-2.251c1.309-0.997,2.324-2.232,3.029-3.672
		c0.691-1.428,1.039-3.022,1.039-4.739C346.039,421.614,345.706,420.1,345.052,418.86z"/>
	<path fill="#3F3E3E" d="M638.769,418.86c-0.651-1.248-1.609-2.321-2.854-3.193c-1.17-0.814-2.61-1.502-4.281-2.047
		c-1.609-0.526-3.438-1-5.441-1.413c-3.563-0.707-6.104-1.593-7.555-2.633c-1.275-0.91-1.869-2.043-1.869-3.564
		c0-0.924,0.185-1.735,0.569-2.484c0.388-0.764,0.929-1.396,1.657-1.938c0.75-0.566,1.682-1.019,2.768-1.345
		c2.213-0.667,5.293-0.688,7.476,0.037c1.049,0.353,1.952,0.849,2.687,1.479c0.723,0.623,1.172,1.365,1.574,2.265
		c0.396,0.891,0.501,1.9,0.501,3.004v1.023h5v-1.023c0-1.438-0.422-2.877-0.953-4.276c-0.537-1.423-1.441-2.706-2.528-3.81
		c-1.092-1.111-2.522-2.008-4.172-2.663c-1.635-0.653-3.599-0.983-5.796-0.983c-1.921,0-3.713,0.25-5.306,0.746
		c-1.618,0.503-3.028,1.219-4.183,2.126c-1.188,0.931-2.125,2.073-2.783,3.392c-0.664,1.324-1.001,2.82-1.001,4.451
		c0,1.78,0.403,3.309,1.196,4.541c0.76,1.191,1.792,2.208,3.069,3.021c1.215,0.773,2.615,1.404,4.153,1.873
		c1.478,0.454,3.035,0.842,4.634,1.152c1.972,0.387,3.655,0.825,5.006,1.301c1.266,0.445,2.291,0.95,3.049,1.5
		c0.678,0.492,1.16,1.047,1.436,1.646c0.292,0.645,0.443,1.422,0.443,2.309c0,2.119-0.807,3.737-2.465,4.945
		c-1.766,1.285-4.262,1.939-7.418,1.939c-1.238,0-2.46-0.173-3.639-0.512c-1.136-0.323-2.16-0.831-3.046-1.509
		c-0.866-0.663-1.475-1.512-2.006-2.528c-0.523-0.983-0.691-2.198-0.691-3.607v-1.03h-5v1.03c0,2.134,0.578,4.038,1.418,5.659
		c0.83,1.604,2.021,2.95,3.392,3.999c1.336,1.022,2.904,1.796,4.582,2.3c1.638,0.491,3.321,0.738,4.97,0.738
		c2.084,0,4.021-0.256,5.741-0.762c1.762-0.517,3.304-1.275,4.573-2.251c1.307-0.997,2.329-2.232,3.034-3.672
		c0.691-1.428,1.043-3.022,1.043-4.739C639.754,421.614,639.423,420.1,638.769,418.86z"/>
	<path fill="#3F3E3E" d="M665.72,434.446h-5v-36.985c0-1.069,0.628-2.009,1.651-2.312c1.027-0.299,2.088,0.108,2.668,1.004
		l17.681,27.727v-28.905h5v37.071c0,1.067-0.797,2.008-1.82,2.31c-1.023,0.299-2.503-0.107-3.084-1.003l-17.096-26.726V434.446z"/>
	<path fill="#3F3E3E" d="M81.72,434.73h-5v-36.986c0-1.068,0.875-2.008,1.899-2.311c1.027-0.299,1.965,0.107,2.543,1.004
		L98.72,423.88v-28.905h5v37.071c0,1.067-0.549,2.008-1.572,2.31c-1.026,0.299-2.127-0.107-2.708-1.003L81.72,405.91V434.73z"/>
</g>
</svg>
