<?xml version="1.0" encoding="utf-8"?>
<!-- Generator: Adobe Illustrator 17.0.1, SVG Export Plug-In . SVG Version: 6.00 Build 0)  -->
<!DOCTYPE svg PUBLIC "-//W3C//DTD SVG 1.1//EN" "http://www.w3.org/Graphics/SVG/1.1/DTD/svg11.dtd">
<svg version="1.1" id="Calque_1" xmlns="http://www.w3.org/2000/svg" xmlns:xlink="http://www.w3.org/1999/xlink" x="0px" y="0px"
	 width="339.336px" height="339.336px" viewBox="0 0 339.336 339.336" enable-background="new 0 0 339.336 339.336"
	 xml:space="preserve">
<g id="Calque_1_1_">
	<g id="Calque_4">
		<g>
			<path fill="#141414" d="M169.668,336.836C77.491,336.836,2.5,261.845,2.5,169.668S77.491,2.5,169.668,2.5
				s167.168,74.991,167.168,167.168S261.845,336.836,169.668,336.836z"/>
			<path fill="#935B00" d="M169.668,5c43.984,0,85.336,17.128,116.438,48.23s48.23,72.454,48.23,116.438
				s-17.128,85.336-48.23,116.438s-72.453,48.23-116.438,48.23s-85.336-17.128-116.438-48.23S5,213.652,5,169.668
				S22.128,84.332,53.23,53.23S125.684,5,169.668,5 M169.668,0C75.963,0,0,75.963,0,169.668s75.963,169.668,169.668,169.668
				s169.668-75.963,169.668-169.668S263.373,0,169.668,0L169.668,0z"/>
		</g>
	</g>
	<g id="Fond" display="none">
		<rect x="-8.504" y="-8.504" display="inline" fill="#25221E" width="356.344" height="356.343"/>
	</g>
	<g id="Calque_3" display="none">
		<g display="inline">
			<path fill="#E6E6E6" d="M144.054,320.089c-71.775-12.43-126.538-75.147-126.538-150.422C17.516,85.486,86.002,17,170.183,17
				c3.028,0,6.034,0.099,9.02,0.274V0.24c-2.987-0.157-5.994-0.24-9.02-0.24C76.628,0,0.516,76.112,0.516,169.667
				c0,84.671,62.345,155.052,143.538,167.655V320.089z"/>
			<path fill="#E6E6E6" d="M197.343,2.184v17.238c71.27,12.849,125.509,75.332,125.509,150.246
				c0,84.182-68.486,152.668-152.668,152.668c-2.68,0-5.344-0.071-7.99-0.208v17.015c2.648,0.123,5.312,0.193,7.99,0.193
				c93.556,0,169.668-76.112,169.668-169.668C339.851,85.356,278.032,15.222,197.343,2.184z"/>
		</g>
	</g>
	<g id="Monogramme_2_1_">
		<path fill="#E6E6E6" d="M169.669,149.642"/>
		<g>
			<g>
				<path fill="#935B00" d="M178.172,56.953L178.172,56.953c-2.787-0.356-5.621-0.559-8.504-0.559
					c-18.178,0-34.648,7.287-46.672,19.087c-5.339-5.232-11.546-9.583-18.392-12.797L84.425,97.638
					c10.771,3.419,18.599,13.511,18.599,25.399c0,27.331,16.458,50.806,39.999,61.089v-61.088h0.04
					c0-14.693,11.911-26.604,26.604-26.604c2.976,0,5.833,0.496,8.505,1.397V97.83c10.522,3.548,18.102,13.49,18.102,25.208l0,0
					h0.038V61.969C190.632,59.488,184.546,57.764,178.172,56.953z"/>
				<path fill="#DCDCDC" d="M236.311,123.037c0-27.331-16.459-50.806-39.999-61.088v61.089h-0.041
					c0,14.692-11.911,26.604-26.604,26.604c-2.976,0-5.833-0.496-8.505-1.397c0.001,0,0.002,0.001,0.003,0.001
					c-10.521-3.548-18.1-13.49-18.1-25.208h-0.001h-0.04v61.088c5.678,2.48,11.768,4.184,18.139,4.997l0,0
					c2.787,0.354,5.622,0.559,8.506,0.559c0.226,0,0.448-0.015,0.673-0.017c14.38,0.359,25.97,12.161,25.97,26.627
					c0,14.695-11.952,26.65-26.643,26.65c-14.691,0-26.643-11.955-26.643-26.65h-40c0,36.751,29.896,66.65,66.643,66.65
					s66.643-29.899,66.643-66.65c0-18.127-7.284-34.578-19.067-46.604C229.033,157.666,236.311,141.205,236.311,123.037z"/>
			</g>
		</g>
	</g>
</g>
<g id="Calque_2" display="none">
	<g id="Monogramme_2_2_" display="inline">
		<path fill="#E6E6E6" d="M169.669,149.642"/>
		<g>
			<g>
				<path fill="#935B00" d="M143.023,184.126v-61.088h0.04c0-14.693,11.911-26.604,26.604-26.604c2.976,0,5.833,0.496,8.505,1.397
					V56.953c-2.787-0.356-5.621-0.559-8.504-0.559c-18.178,0-34.648,7.287-46.672,19.087c-5.339-5.232-11.546-9.583-18.392-12.797
					L84.425,97.638c10.771,3.419,18.599,13.511,18.599,25.399C103.024,150.368,119.482,173.843,143.023,184.126z"/>
				<path fill="#E6E6E6" d="M236.311,123.037c0-27.331-16.459-50.806-39.999-61.088v61.089h-0.041
					c0,14.692-11.911,26.604-26.604,26.604c-2.976,0-5.833-0.496-8.505-1.397v40.878c2.787,0.354,5.622,0.559,8.506,0.559
					c0.226,0,0.448-0.015,0.673-0.017c14.38,0.359,25.97,12.161,25.97,26.627c0,14.695-11.952,26.65-26.643,26.65
					c-14.691,0-26.643-11.955-26.643-26.65h-40c0,36.751,29.896,66.65,66.643,66.65s66.643-29.899,66.643-66.65
					c0-18.127-7.284-34.578-19.067-46.604C229.033,157.666,236.311,141.205,236.311,123.037z"/>
			</g>
		</g>
	</g>
</g>
<line fill="none" stroke="#141414" stroke-width="5" stroke-miterlimit="10" x1="193.793" y1="59.172" x2="193.793" y2="123.038"/>
<line fill="none" stroke="#141414" stroke-width="5" stroke-miterlimit="10" x1="145.501" y1="186.904" x2="145.501" y2="123.038"/>
</svg>
