<?xml version="1.0" encoding="utf-8"?>
<!-- Generator: Adobe Illustrator 17.0.1, SVG Export Plug-In . SVG Version: 6.00 Build 0)  -->
<!DOCTYPE svg PUBLIC "-//W3C//DTD SVG 1.1//EN" "http://www.w3.org/Graphics/SVG/1.1/DTD/svg11.dtd">
<svg version="1.1" id="Calque_1" xmlns="http://www.w3.org/2000/svg" xmlns:xlink="http://www.w3.org/1999/xlink" x="0px" y="0px"
	 width="339.336px" height="339.336px" viewBox="0 0 339.336 339.336" enable-background="new 0 0 339.336 339.336"
	 xml:space="preserve">
<g>
	<g>
		<path fill="#141414" d="M169.668,331.836C80.248,331.836,7.5,259.088,7.5,169.668S80.248,7.5,169.668,7.5
			s162.168,72.748,162.168,162.168S259.088,331.836,169.668,331.836z"/>
		<path fill="#935B00" d="M169.668,9.511c42.779,0,82.999,16.659,113.248,46.909c30.249,30.25,46.909,70.468,46.909,113.248
			s-16.659,82.999-46.909,113.248c-30.25,30.249-70.469,46.909-113.248,46.909S86.669,313.167,56.42,282.916
			S9.511,212.447,9.511,169.668S26.169,86.669,56.42,56.42S126.889,9.511,169.668,9.511 M169.668,0C75.963,0,0,75.963,0,169.668
			s75.963,169.668,169.668,169.668s169.668-75.963,169.668-169.668S263.373,0,169.668,0L169.668,0z"/>
	</g>
</g>
<g id="Fond" display="none">
	<rect x="-8.504" y="-8.504" display="inline" fill="#25221E" width="356.344" height="356.343"/>
</g>
<g id="Calque_3" display="none">
	<g display="inline">
		<path fill="#E6E6E6" d="M144.054,320.089c-71.775-12.43-126.538-75.147-126.538-150.422C17.516,85.486,86.002,17,170.183,17
			c3.028,0,6.034,0.099,9.02,0.274V0.24c-2.987-0.157-5.994-0.24-9.02-0.24C76.628,0,0.516,76.112,0.516,169.667
			c0,84.671,62.345,155.052,143.538,167.655V320.089z"/>
		<path fill="#E6E6E6" d="M197.343,2.184v17.238c71.27,12.849,125.509,75.332,125.509,150.246
			c0,84.182-68.486,152.668-152.668,152.668c-2.68,0-5.344-0.071-7.99-0.208v17.015c2.648,0.123,5.312,0.193,7.99,0.193
			c93.556,0,169.668-76.112,169.668-169.668C339.851,85.356,278.032,15.222,197.343,2.184z"/>
	</g>
</g>
<g id="Calque_2" display="none">
	<g id="Monogramme_2_2_" display="inline">
		<path fill="#E6E6E6" d="M169.669,149.642"/>
		<g>
			<g>
				<path fill="#935B00" d="M143.023,184.126v-61.088h0.04c0-14.693,11.911-26.604,26.604-26.604c2.976,0,5.833,0.496,8.505,1.397
					V56.953c-2.787-0.356-5.621-0.559-8.504-0.559c-18.178,0-34.648,7.287-46.672,19.087c-5.339-5.232-11.546-9.583-18.392-12.797
					L84.425,97.638c10.771,3.419,18.599,13.511,18.599,25.399C103.024,150.368,119.482,173.843,143.023,184.126z"/>
				<path fill="#E6E6E6" d="M236.311,123.037c0-27.331-16.459-50.806-39.999-61.088v61.089h-0.041
					c0,14.692-11.911,26.604-26.604,26.604c-2.976,0-5.833-0.496-8.505-1.397v40.878c2.787,0.354,5.622,0.559,8.506,0.559
					c0.226,0,0.448-0.015,0.673-0.017c14.38,0.359,25.97,12.161,25.97,26.627c0,14.695-11.952,26.65-26.643,26.65
					c-14.691,0-26.643-11.955-26.643-26.65h-40c0,36.751,29.896,66.65,66.643,66.65s66.643-29.899,66.643-66.65
					c0-18.127-7.284-34.578-19.067-46.604C229.033,157.666,236.311,141.205,236.311,123.037z"/>
			</g>
		</g>
	</g>
</g>
<g>
	<g>
		<defs>
			<circle id="SVGID_1_" cx="169.668" cy="167.501" r="101.299"/>
		</defs>
		<clipPath id="SVGID_2_">
			<use xlink:href="#SVGID_1_"  overflow="visible"/>
		</clipPath>
		<g clip-path="url(#SVGID_2_)">
			<circle fill="#DCDCDC" cx="169.668" cy="285.128" r="115.77"/>
			<g>
				<path fill="#DCDCDC" d="M169.668,194.087c-31.629,0-57.363-28.458-57.363-63.437s25.732-63.436,57.363-63.436
					s57.363,28.457,57.363,63.436S201.297,194.087,169.668,194.087z"/>
				<path fill="#141414" d="M169.668,75.981c26.838,0,48.594,24.476,48.594,54.668c0,30.193-21.756,54.669-48.594,54.669
					s-48.594-24.476-48.594-54.669C121.074,100.457,142.83,75.981,169.668,75.981 M169.668,61.403
					c-17.318,0-33.486,7.458-45.523,21.001c-11.542,12.985-17.898,30.118-17.898,48.246s6.356,35.262,17.898,48.246
					c12.038,13.543,28.205,21.001,45.523,21.001s33.486-7.458,45.523-21.001c11.541-12.985,17.898-30.119,17.898-48.246
					s-6.356-35.261-17.898-48.246C203.154,68.862,186.986,61.403,169.668,61.403L169.668,61.403z"/>
			</g>
		</g>
	</g>
</g>
</svg>
